<svg width="607" height="330" viewBox="0 0 607 330" fill="none" xmlns="http://www.w3.org/2000/svg">
<path d="M592.537 59.296C589.74 37.233 574.517 20.016 553.407 15.04C541.086 12.136 528.415 13.782 517.134 19.753C509.042 24.037 499.445 33.834 495.507 41.834L492.396 48.154L486.698 46.222C482.388 44.759 479.173 44.395 473.5 44.725C464.037 45.275 458.125 47.85 451.123 54.472C434.697 70.007 436.163 95.586 454.277 109.492C463.469 116.548 462.251 116.433 528 116.445C594.246 116.457 591.149 116.784 598.978 108.955C609.907 98.026 609.245 80.286 597.534 70.261C593.731 67.006 593.432 66.349 592.537 59.296Z" fill="#E7E7EB"/>
<path d="M159.048 23.138C152.237 12.878 140.709 4.94001 128.407 2.04001C116.086 -0.863992 103.415 0.782006 92.134 6.75301C84.042 11.037 74.445 20.834 70.507 28.834L67.396 35.154L61.698 33.222C57.388 31.759 54.173 31.395 48.5 31.725C39.037 32.275 33.125 34.85 26.123 41.472C9.45601 57.235 11.215 83.073 29.896 96.904C38.999 103.644 38.409 103.593 104.611 103.281C170.844 102.968 166.499 103.434 174.111 95.822C184.906 85.027 184.178 67.228 172.534 57.261C168.728 54.003 168.432 53.353 167.533 46.262C166.367 37.06 163.99 30.584 159.048 23.138Z" fill="#E7E7EB"/>
<path d="M176.772 201.326C169.609 190.271 157.642 181.35 143.5 176.524C136.275 174.058 121.147 173.012 113.5 174.448C106.774 175.712 96.092 180.007 90.74 183.599C80.865 190.228 70.854 201.827 67.523 210.5C66.784 212.425 65.865 214.364 65.481 214.808C65.097 215.253 61.907 214.645 58.392 213.457C53.149 211.686 50.292 211.367 42.5 211.681C34.392 212.007 32.047 212.519 26.5 215.175C6.39301 224.802 -3.49499 245.743 2.03801 266.985C5.32301 279.598 13.928 289.751 26.5 295.848L33 299L106.355 299.275L179.71 299.55L185.355 296.974C207.135 287.036 211.426 259.601 193.731 243.428C188.298 238.463 188.268 238.403 187.419 230.825C186.051 218.633 183.62 211.896 176.772 201.326Z" fill="#E7E7EB"/>
<path d="M527.997 288.412C526.037 273.976 517.102 262.488 504.03 257.597C490.052 252.367 476.21 255.079 465.433 265.159C462.61 267.8 459.19 272.151 457.833 274.829C455.716 279.008 455.056 279.598 453.183 278.993C451.982 278.606 448.041 278.065 444.425 277.791C439.08 277.387 436.874 277.714 432.637 279.536C426.127 282.337 420.386 288.696 418.168 295.565C416.092 301.992 416.08 304.706 418.094 311.568C420.059 318.262 428.151 326.754 434.152 328.42C436.609 329.103 453.744 329.491 481.55 329.494L525.1 329.5L529.332 326.756C534.255 323.564 538.512 316.022 538.478 310.554C538.449 305.789 535.464 299.489 531.758 296.371C529.353 294.347 528.581 292.714 527.997 288.412Z" fill="#E7E7EB"/>
</svg>
