<svg width="200" height="200" viewBox="0 0 200 200" fill="none" xmlns="http://www.w3.org/2000/svg">
<path d="M56.3333 40.3333L41.3333 25.4167L29.5833 37.1667L44.4999 52.0833L56.3333 40.3333ZM33.3333 87.5H8.33325V104.167H33.3333V87.5ZM108.333 4.58334H91.6666V29.1667H108.333V4.58334V4.58334ZM170.417 37.1667L158.667 25.4167L143.75 40.3333L155.5 52.0833L170.417 37.1667ZM143.667 151.333L158.583 166.333L170.333 154.583L155.333 139.667L143.667 151.333ZM166.667 87.5V104.167H191.667V87.5H166.667ZM99.9999 45.8333C72.4166 45.8333 49.9999 68.25 49.9999 95.8333C49.9999 123.417 72.4166 145.833 99.9999 145.833C127.583 145.833 150 123.417 150 95.8333C150 68.25 127.583 45.8333 99.9999 45.8333ZM91.6666 187.083H108.333V162.5H91.6666V187.083ZM29.5833 154.5L41.3333 166.25L56.2499 151.25L44.4999 139.5L29.5833 154.5Z" fill="#FFEC65"/>
</svg>
