<svg width="200" height="192" viewBox="0 0 200 192" fill="none" xmlns="http://www.w3.org/2000/svg">
<path d="M192 82.0714C192.01 62.1999 181.707 46.3443 163.518 38.2435C152.437 33.3082 132.887 33.3367 121.969 38.3025C104.281 46.3483 93.9236 62.7858 94.0004 82.6878C94.1083 110.377 114.731 130.56 142.918 130.56C172.178 130.56 191.983 110.994 192 82.0714Z" fill="#FFEC65"/>
<path d="M114.299 72.8682C111.16 66.2238 104.49 58.7266 98.7954 55.4359C86.8352 48.5282 76.8598 48.139 64.6337 54.0967C52.6131 59.9571 45.7041 68.8535 43.4564 81.3726C41.8523 90.2862 40.1544 91.9859 30.5658 94.2494C23.1371 96.0063 17.2642 100.044 12.624 106.582C4.57597 117.923 3.9325 126.768 10.3068 138.445C18.8744 154.138 25.9708 155.52 97.9132 155.52C164.01 155.52 171.886 154.447 180.091 144.323C190.601 131.357 178.408 106.874 161.442 106.874C155.019 106.874 153.754 105.544 153.754 98.7877C153.754 94.0376 150.872 88.1372 146.763 84.4802C139.355 77.8901 125.281 76.1446 121.855 81.3926C120.701 83.1639 117.414 79.4525 114.299 72.8682Z" fill="#F2F2F1"/>
</svg>
