<svg width="200" height="192" viewBox="0 0 200 192" fill="none" xmlns="http://www.w3.org/2000/svg">
<path d="M119.299 65.9482C116.16 59.3038 109.49 51.8066 103.795 48.5159C91.8352 41.6082 81.8598 41.219 69.6337 47.1767C57.6131 53.0371 50.7041 61.9335 48.4564 74.4526C46.8523 83.3662 45.1544 85.0659 35.5658 87.3294C28.1371 89.0864 22.2642 93.1239 17.624 99.6625C9.57597 111.003 8.9325 119.848 15.3068 131.525C23.8744 147.218 30.9708 148.6 102.913 148.6C169.01 148.6 176.886 147.527 185.091 137.403C195.601 124.437 183.408 99.9544 166.442 99.9544C160.019 99.9544 158.754 98.6238 158.754 91.8677C158.754 87.1176 155.872 81.2172 151.763 77.5602C144.355 70.9701 130.281 69.2246 126.855 74.4726C125.701 76.2439 122.414 72.5325 119.299 65.9482Z" fill="#F2F2F1"/>
</svg>
