<svg width="200" height="192" viewBox="0 0 200 192" fill="none" xmlns="http://www.w3.org/2000/svg">
<path d="M138.83 56.9062C136.255 51.4321 130.784 45.2554 126.113 42.5443C116.303 36.8533 108.121 36.5327 98.0928 41.441C88.2332 46.2692 82.5662 53.5986 80.7227 63.9126C79.4069 71.2562 78.0143 72.6566 70.1494 74.5214C64.0563 75.9689 59.2392 79.2953 55.4331 84.6822C48.832 94.0249 48.3042 101.312 53.5326 110.933C60.5599 123.861 66.3805 125 125.389 125C179.604 125 186.064 124.116 192.794 115.775C201.414 105.093 191.413 84.9226 177.497 84.9226C172.229 84.9226 171.191 83.8264 171.191 78.2603C171.191 74.3469 168.827 69.4858 165.457 66.4729C159.381 61.0436 147.837 59.6055 145.027 63.9291C144.08 65.3884 141.384 62.3308 138.83 56.9062Z" fill="#48484A"/>
<path d="M111.299 70.9482C108.16 64.3038 101.49 56.8066 95.7954 53.5159C83.8352 46.6082 73.8598 46.219 61.6337 52.1767C49.6131 58.0371 42.7041 66.9335 40.4564 79.4526C38.8523 88.3662 37.1544 90.0659 27.5658 92.3294C20.1371 94.0864 14.2642 98.1239 9.62395 104.662C1.57597 116.003 0.932503 124.848 7.30684 136.525C15.8744 152.218 22.9708 153.6 94.9132 153.6C161.01 153.6 168.886 152.527 177.091 142.403C187.601 129.437 175.408 104.954 158.442 104.954C152.019 104.954 150.754 103.624 150.754 96.8677C150.754 92.1176 147.872 86.2172 143.763 82.5602C136.355 75.9701 122.281 74.2246 118.855 79.4726C117.701 81.2439 114.414 77.5325 111.299 70.9482Z" fill="#F2F2F1"/>
</svg>
