<svg width="200" height="200" viewBox="0 0 200 200" fill="none" xmlns="http://www.w3.org/2000/svg">
<g clip-path="url(#clip0_27_21)">
<path d="M167.063 77.035C162.246 52.4537 140.783 34 115 34C94.5292 34 76.75 45.685 67.8958 62.785C46.575 65.065 30 83.2338 30 105.25C30 128.834 49.0542 148 72.5 148H164.583C184.133 148 200 132.04 200 112.375C200 93.565 185.479 78.3175 167.063 77.035Z" fill="#48484A"/>
<path d="M136.062 95.035C131.246 70.4537 109.783 52 84 52C63.5292 52 45.75 63.685 36.8958 80.785C15.575 83.065 -1 101.234 -1 123.25C-1 146.834 18.0542 166 41.5 166H133.583C153.133 166 169 150.04 169 130.375C169 111.565 154.479 96.3175 136.062 95.035Z" fill="#F2F2F1"/>
</g>
<defs>
<clipPath id="clip0_27_21">
<rect width="200" height="200" fill="white"/>
</clipPath>
</defs>
</svg>
