<svg width="200" height="200" viewBox="0 0 200 200" fill="none" xmlns="http://www.w3.org/2000/svg">
<g clip-path="url(#clip0_27_21)">
<path d="M167.063 61.035C162.246 36.4537 140.783 18 115 18C94.5292 18 76.75 29.685 67.8958 46.785C46.575 49.065 30 67.2338 30 89.25C30 112.834 49.0542 132 72.5 132H164.583C184.133 132 200 116.04 200 96.375C200 77.565 185.479 62.3175 167.063 61.035Z" fill="#48484A"/>
<path d="M136.062 79.035C131.246 54.4537 109.783 36 84 36C63.5292 36 45.75 47.685 36.8958 64.785C15.575 67.065 -1 85.2337 -1 107.25C-1 130.834 18.0542 150 41.5 150H133.583C153.133 150 169 134.04 169 114.375C169 95.565 154.479 80.3175 136.062 79.035Z" fill="#F2F2F1"/>
<path d="M69 156C64.6 156 61 159.6 61 164C61 168.4 64.6 172 69 172C73.4 172 77 168.4 77 164C77 159.6 73.4 156 69 156ZM53 140C48.6 140 45 143.6 45 148C45 152.4 48.6 156 53 156C57.4 156 61 152.4 61 148C61 143.6 57.4 140 53 140ZM53 172C48.6 172 45 175.6 45 180C45 184.4 48.6 188 53 188C57.4 188 61 184.4 61 180C61 175.6 57.4 172 53 172ZM101 140C105.4 140 109 136.4 109 132C109 127.6 105.4 124 101 124C96.6 124 93 127.6 93 132C93 136.4 96.6 140 101 140ZM85 172C80.6 172 77 175.6 77 180C77 184.4 80.6 188 85 188C89.4 188 93 184.4 93 180C93 175.6 89.4 172 85 172ZM101 156C96.6 156 93 159.6 93 164C93 168.4 96.6 172 101 172C105.4 172 109 168.4 109 164C109 159.6 105.4 156 101 156ZM85 140C80.6 140 77 143.6 77 148C77 152.4 80.6 156 85 156C89.4 156 93 152.4 93 148C93 143.6 89.4 140 85 140ZM69 124C64.6 124 61 127.6 61 132C61 136.4 64.6 140 69 140C73.4 140 77 136.4 77 132C77 127.6 73.4 124 69 124Z" fill="#48484A"/>
</g>
<defs>
<clipPath id="clip0_27_21">
<rect width="200" height="200" fill="white"/>
</clipPath>
</defs>
</svg>
