<svg width="200" height="200" viewBox="0 0 200 200" fill="none" xmlns="http://www.w3.org/2000/svg">
<g clip-path="url(#clip0_27_21)">
<path d="M167.063 61.035C162.246 36.4537 140.783 18 115 18C94.5292 18 76.75 29.685 67.8958 46.785C46.575 49.065 30 67.2338 30 89.25C30 112.834 49.0542 132 72.5 132H164.583C184.133 132 200 116.04 200 96.375C200 77.565 185.479 62.3175 167.063 61.035Z" fill="#48484A"/>
<path d="M136.062 79.035C131.246 54.4537 109.783 36 84 36C63.5292 36 45.75 47.685 36.8958 64.785C15.575 67.065 -1 85.2337 -1 107.25C-1 130.834 18.0542 150 41.5 150H133.583C153.133 150 169 134.04 169 114.375C169 95.565 154.479 80.3175 136.062 79.035Z" fill="#F2F2F1"/>
<path d="M74.9999 155C70.5999 155 66.9999 158.6 66.9999 163C66.9999 167.4 70.5999 171 74.9999 171C79.3999 171 82.9999 167.4 82.9999 163C82.9999 158.6 79.3999 155 74.9999 155ZM58.9999 171C54.5999 171 50.9999 174.6 50.9999 179C50.9999 183.4 54.5999 187 58.9999 187C63.3999 187 66.9999 183.4 66.9999 179C66.9999 174.6 63.3999 171 58.9999 171ZM90.9999 171C86.5999 171 82.9999 174.6 82.9999 179C82.9999 183.4 86.5999 187 90.9999 187C95.3999 187 98.9999 183.4 98.9999 179C98.9999 174.6 95.3999 171 90.9999 171ZM107 155C102.6 155 98.9999 158.6 98.9999 163C98.9999 167.4 102.6 171 107 171C111.4 171 115 167.4 115 163C115 158.6 111.4 155 107 155Z" fill="#48484A"/>
<path d="M35 163C35 158.6 38.6 155 43 155C47.4 155 51 158.6 51 163C51 167.4 47.4 171 43 171C38.6 171 35 167.4 35 163Z" fill="#48484A"/>
</g>
<defs>
<clipPath id="clip0_27_21">
<rect width="200" height="200" fill="white"/>
</clipPath>
</defs>
</svg>
