<svg width="200" height="200" viewBox="0 0 200 200" fill="none" xmlns="http://www.w3.org/2000/svg">
<g clip-path="url(#clip0_27_21)">
<path d="M104.109 22.5274L94.7 13.1279L87.3295 20.532L96.6864 29.9315L104.109 22.5274ZM89.6818 52.2489H74V62.7511H89.6818V52.2489ZM136.727 0H126.273V15.4909H136.727V0V0ZM175.67 20.532L168.3 13.1279L158.943 22.5274L166.314 29.9315L175.67 20.532ZM158.891 92.4726L168.248 101.925L175.618 94.5205L166.209 85.121L158.891 92.4726ZM173.318 52.2489V62.7511H189V52.2489H173.318ZM131.5 25.9931C114.198 25.9931 100.136 40.1187 100.136 57.5C100.136 74.8813 114.198 89.0068 131.5 89.0068C148.802 89.0068 162.864 74.8813 162.864 57.5C162.864 40.1187 148.802 25.9931 131.5 25.9931ZM126.273 115H136.727V99.5091H126.273V115ZM87.3295 94.468L94.7 101.872L104.057 92.4201L96.6864 85.016L87.3295 94.468Z" fill="#FFEC65"/>
<path d="M136.062 79.035C131.246 54.4537 109.783 36 84 36C63.5292 36 45.75 47.685 36.8958 64.785C15.575 67.065 -1 85.2337 -1 107.25C-1 130.834 18.0542 150 41.5 150H133.583C153.133 150 169 134.04 169 114.375C169 95.565 154.479 80.3175 136.062 79.035Z" fill="#F2F2F1"/>
<path d="M69 156C64.6 156 61 159.6 61 164C61 168.4 64.6 172 69 172C73.4 172 77 168.4 77 164C77 159.6 73.4 156 69 156ZM53 140C48.6 140 45 143.6 45 148C45 152.4 48.6 156 53 156C57.4 156 61 152.4 61 148C61 143.6 57.4 140 53 140ZM53 172C48.6 172 45 175.6 45 180C45 184.4 48.6 188 53 188C57.4 188 61 184.4 61 180C61 175.6 57.4 172 53 172ZM101 140C105.4 140 109 136.4 109 132C109 127.6 105.4 124 101 124C96.6 124 93 127.6 93 132C93 136.4 96.6 140 101 140ZM85 172C80.6 172 77 175.6 77 180C77 184.4 80.6 188 85 188C89.4 188 93 184.4 93 180C93 175.6 89.4 172 85 172ZM101 156C96.6 156 93 159.6 93 164C93 168.4 96.6 172 101 172C105.4 172 109 168.4 109 164C109 159.6 105.4 156 101 156ZM85 140C80.6 140 77 143.6 77 148C77 152.4 80.6 156 85 156C89.4 156 93 152.4 93 148C93 143.6 89.4 140 85 140ZM69 124C64.6 124 61 127.6 61 132C61 136.4 64.6 140 69 140C73.4 140 77 136.4 77 132C77 127.6 73.4 124 69 124Z" fill="#48484A"/>
</g>
<defs>
<clipPath id="clip0_27_21">
<rect width="200" height="200" fill="white"/>
</clipPath>
</defs>
</svg>
