<svg width="200" height="200" viewBox="0 0 200 200" fill="none" xmlns="http://www.w3.org/2000/svg">
<path fill="var(--icon-fill)" d="M183.333 91.6667H148.583L175.583 64.6667L163.833 52.8334L125 91.6667H108.333V75L147.167 36.1667L135.333 24.4167L108.333 51.4167V16.6667H91.6666V51.4167L64.6666 24.4167L52.8333 36.1667L91.6666 75V91.6667H75L36.1666 52.8334L24.4166 64.6667L51.4166 91.6667H16.6666V108.333H51.4166L24.4166 135.333L36.1666 147.167L75 108.333H91.6666V125L52.8333 163.833L64.6666 175.583L91.6666 148.583V183.333H108.333V148.583L135.333 175.583L147.167 163.833L108.333 125V108.333H125L163.833 147.167L175.583 135.333L148.583 108.333H183.333V91.6667Z" />
</svg>
