<svg width="200" height="200" viewBox="0 0 200 200" fill="none" xmlns="http://www.w3.org/2000/svg">
<path d="M141.667 141.583C130.417 141.583 123.333 145.083 117.083 148.25C111.667 151 107.25 153.25 100 153.25C92.5001 153.25 88.3334 151.167 82.9168 148.25C76.6668 145.083 69.8334 141.583 58.3334 141.583C46.8334 141.583 40.0001 145.083 33.7501 148.25C28.3334 151 24.0001 153.25 16.6667 153.25V169.5C27.9167 169.5 35.0001 166 41.2501 162.833C46.6667 160.083 51.0001 157.833 58.3334 157.833C65.6668 157.833 70.0001 159.917 75.4168 162.833C81.6668 166 88.5001 169.5 100 169.5C111.5 169.5 118.333 166 124.583 162.833C130 160.083 134.417 157.833 141.667 157.833C149.167 157.833 153.333 159.917 158.75 162.833C165 166 171.917 169.5 183.333 169.5V153.25C175.833 153.25 171.667 151.167 166.25 148.25C160 145.083 152.917 141.583 141.667 141.583ZM141.667 104.5C130.417 104.5 123.333 108.083 117.083 111.167C111.667 113.833 107.25 116.167 100 116.167C92.5001 116.167 88.3334 114.083 82.9168 111.167C76.6668 108 69.8334 104.5 58.3334 104.5C46.8334 104.5 40.0001 108.083 33.7501 111.167C28.3334 113.833 24.0001 116.167 16.6667 116.167V132.417C27.9167 132.417 35.0001 128.833 41.2501 125.75C46.6667 122.833 50.8334 120.75 58.3334 120.75C65.8334 120.75 70.0001 122.833 75.4168 125.75C81.6668 128.917 88.5001 132.417 100 132.417C111.5 132.417 118.333 128.833 124.583 125.75C130 122.833 134.167 120.75 141.667 120.75C149.167 120.75 153.333 122.833 158.75 125.75C165 128.917 171.917 132.417 183.333 132.417V116.167C175.833 116.167 171.667 114.083 166.25 111.167C160 108 152.917 104.5 141.667 104.5ZM166.25 37.1667C160 34 153.083 30.5 141.667 30.5C130.25 30.5 123.333 34 117.083 37.1667C111.667 39.8333 107.25 42.1667 100 42.1667C92.5001 42.1667 88.3334 40.0833 82.9168 37.1667C76.6668 34.0833 69.8334 30.5 58.3334 30.5C46.8334 30.5 40.0001 34 33.7501 37.1667C28.3334 39.9167 24.0001 42.1667 16.6667 42.1667V58.25C27.9167 58.25 35.0001 54.6667 41.2501 51.5833C46.6667 48.8333 51.0001 46.5833 58.3334 46.5833C65.6668 46.5833 70.0001 48.6667 75.4168 51.5833C81.6668 54.75 88.5001 58.25 100 58.25C111.5 58.25 118.333 54.6667 124.583 51.5833C130 48.9167 134.417 46.5833 141.667 46.5833C149.167 46.5833 153.333 48.6667 158.75 51.5833C165 54.75 171.917 58.25 183.333 58.25V42C175.833 42 171.667 39.9167 166.25 37.1667V37.1667ZM141.667 67.4167C130.417 67.4167 123.333 71 117.083 74.0833C111.667 77 107.5 79.0833 100 79.0833C92.5001 79.0833 88.3334 77 82.9168 74.0833C76.6668 70.9167 69.8334 67.4167 58.3334 67.4167C46.8334 67.4167 40.0001 71 33.7501 74.0833C28.3334 77 24.1667 79.0833 16.6667 79.0833V95.3333C27.9167 95.3333 35.0001 91.75 41.2501 88.6667C46.6667 86 51.0834 83.6667 58.3334 83.6667C65.5834 83.6667 70.0001 85.75 75.4168 88.6667C81.6668 91.8333 88.5001 95.3333 100 95.3333C111.5 95.3333 118.333 91.75 124.583 88.6667C130 86 134.417 83.6667 141.667 83.6667C149.167 83.6667 153.333 85.75 158.75 88.6667C165 91.8333 171.917 95.3333 183.333 95.3333V79.0833C175.833 79.0833 171.667 77 166.25 74.0833C160 70.9167 152.917 67.4167 141.667 67.4167Z" fill="#48484A"/>
</svg>
