<svg width="100" height="100" viewBox="0 0 100 100" fill="none" xmlns="http://www.w3.org/2000/svg">
<path d="M56.8486 40.0196C55.8096 37.6976 53.6016 35.0776 51.7166 33.9276C47.7576 31.5136 44.4556 31.3776 40.4086 33.4596C36.4296 35.5076 34.1426 38.6166 33.3986 42.9916C32.8676 46.1066 32.3056 46.7006 29.1316 47.4916C26.6726 48.1056 24.7286 49.5166 23.1926 51.8016C20.5286 55.7646 20.3156 58.8556 22.4256 62.9366C25.2616 68.4206 27.6106 68.9036 51.4246 68.9036C73.3036 68.9036 75.9106 68.5286 78.6266 64.9906C82.1056 60.4596 78.0696 51.9036 72.4536 51.9036C70.3276 51.9036 69.9086 51.4386 69.9086 49.0776C69.9086 47.4176 68.9546 45.3556 67.5946 44.0776C65.1426 41.7746 60.4836 41.1646 59.3496 42.9986C58.9676 43.6176 57.8796 42.3206 56.8486 40.0196Z" fill="#F2F2F1"/>
</svg>
